<svg xmlns="http://www.w3.org/2000/svg" xmlns:xlink="http://www.w3.org/1999/xlink" width="640" zoomAndPan="magnify" viewBox="0 0 480 119.999999" height="160" preserveAspectRatio="xMidYMid meet" version="1.0"><defs><g/><clipPath id="5e98bca9b2"><path d="M 0 98.160156 L 71.253906 98.160156 L 71.253906 115.855469 L 0 115.855469 Z M 0 98.160156 " clip-rule="nonzero"/></clipPath><clipPath id="8f3f8896d4"><path d="M 71.253906 98.160156 L 142.507812 98.160156 L 142.507812 115.855469 L 71.253906 115.855469 Z M 71.253906 98.160156 " clip-rule="nonzero"/></clipPath><clipPath id="0f789cbbf1"><path d="M 142.507812 98.160156 L 213.761719 98.160156 L 213.761719 115.855469 L 142.507812 115.855469 Z M 142.507812 98.160156 " clip-rule="nonzero"/></clipPath><clipPath id="a99b07ab55"><path d="M 213.761719 98.160156 L 285.015625 98.160156 L 285.015625 115.855469 L 213.761719 115.855469 Z M 213.761719 98.160156 " clip-rule="nonzero"/></clipPath></defs><g fill="#000000" fill-opacity="1"><g transform="translate(-3.204535, 79.013132)"><g><path d="M 37.515625 0 L 8.953125 0 C 6.816406 0 5.269531 -0.40625 4.3125 -1.21875 C 3.351562 -2.039062 2.75 -3.070312 2.5 -4.3125 C 2.25 -5.5625 2.125 -6.753906 2.125 -7.890625 L 2.125 -67.234375 C 2.125 -69.722656 2.742188 -71.570312 3.984375 -72.78125 C 5.234375 -73.988281 6.890625 -74.59375 8.953125 -74.59375 L 37.515625 -74.59375 C 50.648438 -74.59375 60.46875 -71.644531 66.96875 -65.75 C 73.46875 -59.851562 76.71875 -50.367188 76.71875 -37.296875 C 76.71875 -24.015625 73.46875 -14.476562 66.96875 -8.6875 C 60.46875 -2.894531 50.648438 0 37.515625 0 Z M 39.421875 -7.140625 L 39.421875 -67.453125 C 39.421875 -68.660156 39.066406 -69.507812 38.359375 -70 C 37.648438 -70.5 36.941406 -70.570312 36.234375 -70.21875 C 35.523438 -69.863281 35.171875 -68.941406 35.171875 -67.453125 L 35.171875 -7.140625 C 35.171875 -5.859375 35.523438 -5.003906 36.234375 -4.578125 C 36.941406 -4.148438 37.648438 -4.148438 38.359375 -4.578125 C 39.066406 -5.003906 39.421875 -5.859375 39.421875 -7.140625 Z M 39.421875 -7.140625 "/></g></g></g><g fill="#000000" fill-opacity="1"><g transform="translate(74.476132, 79.013132)"><g><path d="M 57.328125 -35.703125 C 60.597656 -35.703125 63.582031 -34.898438 66.28125 -33.296875 C 68.976562 -31.703125 71.125 -29.570312 72.71875 -26.90625 C 74.320312 -24.238281 75.125 -21.273438 75.125 -18.015625 C 75.125 -14.671875 74.320312 -11.628906 72.71875 -8.890625 C 71.125 -6.160156 68.976562 -3.992188 66.28125 -2.390625 C 63.582031 -0.796875 60.597656 0 57.328125 0 L 8.84375 0 C 6.425781 0 4.703125 -0.65625 3.671875 -1.96875 C 2.640625 -3.28125 2.125 -5.109375 2.125 -7.453125 L 2.125 -67.140625 C 2.125 -69.484375 2.640625 -71.3125 3.671875 -72.625 C 4.703125 -73.9375 6.425781 -74.59375 8.84375 -74.59375 L 57.328125 -74.59375 C 60.597656 -74.59375 63.582031 -73.789062 66.28125 -72.1875 C 68.976562 -70.59375 71.125 -68.425781 72.71875 -65.6875 C 74.320312 -62.957031 75.125 -59.921875 75.125 -56.578125 C 75.125 -53.390625 74.320312 -50.441406 72.71875 -47.734375 C 71.125 -45.035156 68.976562 -42.882812 66.28125 -41.28125 C 63.582031 -39.6875 60.597656 -38.890625 57.328125 -38.890625 C 54.054688 -38.890625 51.050781 -39.6875 48.3125 -41.28125 C 45.582031 -42.882812 43.414062 -45.035156 41.8125 -47.734375 C 40.21875 -50.441406 39.421875 -53.425781 39.421875 -56.6875 L 39.421875 -67.453125 C 39.421875 -68.660156 39.066406 -69.507812 38.359375 -70 C 37.648438 -70.5 36.941406 -70.570312 36.234375 -70.21875 C 35.523438 -69.863281 35.171875 -68.941406 35.171875 -67.453125 L 35.171875 -39.421875 L 44.859375 -39.421875 C 45.992188 -39.421875 46.738281 -39.066406 47.09375 -38.359375 C 47.457031 -37.648438 47.457031 -36.941406 47.09375 -36.234375 C 46.738281 -35.523438 45.992188 -35.171875 44.859375 -35.171875 L 35.171875 -35.171875 L 35.171875 -7.140625 C 35.171875 -5.859375 35.523438 -5.003906 36.234375 -4.578125 C 36.941406 -4.148438 37.648438 -4.148438 38.359375 -4.578125 C 39.066406 -5.003906 39.421875 -5.859375 39.421875 -7.140625 L 39.421875 -17.90625 C 39.421875 -21.164062 40.21875 -24.144531 41.8125 -26.84375 C 43.414062 -29.550781 45.582031 -31.703125 48.3125 -33.296875 C 51.050781 -34.898438 54.054688 -35.703125 57.328125 -35.703125 Z M 57.328125 -35.703125 "/></g></g></g><g fill="#000000" fill-opacity="1"><g transform="translate(149.599412, 79.013132)"><g><path d="M 6.609375 -56.484375 C 4.691406 -59.535156 3.925781 -62.425781 4.3125 -65.15625 C 4.707031 -67.894531 6.078125 -70.148438 8.421875 -71.921875 C 10.765625 -73.703125 13.960938 -74.59375 18.015625 -74.59375 L 44.109375 -74.59375 C 47.734375 -74.59375 50.96875 -73.789062 53.8125 -72.1875 C 56.65625 -70.59375 58.894531 -68.460938 60.53125 -65.796875 C 62.164062 -63.140625 62.984375 -60.175781 62.984375 -56.90625 C 62.984375 -53.632812 62.269531 -50.648438 60.84375 -47.953125 C 59.425781 -45.253906 57.421875 -43.101562 54.828125 -41.5 C 52.234375 -39.90625 49.085938 -39.109375 45.390625 -39.109375 C 42.484375 -39.109375 39.164062 -40.117188 35.4375 -42.140625 C 31.707031 -44.171875 27.941406 -46.890625 24.140625 -50.296875 C 20.335938 -53.703125 16.875 -57.394531 13.75 -61.375 C 13.320312 -62.019531 12.734375 -62.304688 11.984375 -62.234375 C 11.242188 -62.160156 10.660156 -61.859375 10.234375 -61.328125 C 9.804688 -60.796875 9.84375 -60.03125 10.34375 -59.03125 C 11.40625 -57.039062 13.054688 -54.910156 15.296875 -52.640625 C 17.535156 -50.367188 20.128906 -48.113281 23.078125 -45.875 C 26.023438 -43.632812 29.0625 -41.554688 32.1875 -39.640625 C 37.863281 -36.234375 42.847656 -32.695312 47.140625 -29.03125 C 51.441406 -25.375 54.695312 -21.769531 56.90625 -18.21875 C 58.820312 -15.238281 59.632812 -12.34375 59.34375 -9.53125 C 59.0625 -6.726562 57.75 -4.4375 55.40625 -2.65625 C 53.0625 -0.882812 49.722656 0 45.390625 0 L 19.390625 0 C 15.765625 0 12.53125 -0.796875 9.6875 -2.390625 C 6.851562 -3.992188 4.617188 -6.144531 2.984375 -8.84375 C 1.347656 -11.539062 0.53125 -14.523438 0.53125 -17.796875 C 0.53125 -21.066406 1.238281 -24.03125 2.65625 -26.6875 C 4.082031 -29.351562 6.09375 -31.484375 8.6875 -33.078125 C 11.28125 -34.679688 14.421875 -35.484375 18.109375 -35.484375 C 21.097656 -35.484375 24.4375 -34.46875 28.125 -32.4375 C 31.820312 -30.414062 35.570312 -27.71875 39.375 -24.34375 C 43.175781 -20.96875 46.640625 -17.296875 49.765625 -13.328125 C 50.265625 -12.753906 50.882812 -12.484375 51.625 -12.515625 C 52.375 -12.554688 52.941406 -12.859375 53.328125 -13.421875 C 53.722656 -13.992188 53.671875 -14.742188 53.171875 -15.671875 C 52.179688 -17.585938 50.546875 -19.695312 48.265625 -22 C 45.992188 -24.3125 43.296875 -26.65625 40.171875 -29.03125 C 37.046875 -31.414062 33.707031 -33.675781 30.15625 -35.8125 C 25.1875 -38.863281 20.585938 -42.179688 16.359375 -45.765625 C 12.128906 -49.359375 8.878906 -52.929688 6.609375 -56.484375 Z M 6.609375 -56.484375 "/></g></g></g><g fill="#000000" fill-opacity="1"><g transform="translate(213.107878, 79.013132)"><g><path d="M 57.328125 -35.703125 C 60.597656 -35.703125 63.582031 -34.898438 66.28125 -33.296875 C 68.976562 -31.703125 71.125 -29.570312 72.71875 -26.90625 C 74.320312 -24.238281 75.125 -21.273438 75.125 -18.015625 C 75.125 -14.671875 74.320312 -11.628906 72.71875 -8.890625 C 71.125 -6.160156 68.976562 -3.992188 66.28125 -2.390625 C 63.582031 -0.796875 60.597656 0 57.328125 0 L 8.84375 0 C 6.425781 0 4.703125 -0.65625 3.671875 -1.96875 C 2.640625 -3.28125 2.125 -5.109375 2.125 -7.453125 L 2.125 -67.140625 C 2.125 -69.484375 2.640625 -71.3125 3.671875 -72.625 C 4.703125 -73.9375 6.425781 -74.59375 8.84375 -74.59375 L 57.328125 -74.59375 C 60.597656 -74.59375 63.582031 -73.789062 66.28125 -72.1875 C 68.976562 -70.59375 71.125 -68.425781 72.71875 -65.6875 C 74.320312 -62.957031 75.125 -59.921875 75.125 -56.578125 C 75.125 -53.390625 74.320312 -50.441406 72.71875 -47.734375 C 71.125 -45.035156 68.976562 -42.882812 66.28125 -41.28125 C 63.582031 -39.6875 60.597656 -38.890625 57.328125 -38.890625 C 54.054688 -38.890625 51.050781 -39.6875 48.3125 -41.28125 C 45.582031 -42.882812 43.414062 -45.035156 41.8125 -47.734375 C 40.21875 -50.441406 39.421875 -53.425781 39.421875 -56.6875 L 39.421875 -67.453125 C 39.421875 -68.660156 39.066406 -69.507812 38.359375 -70 C 37.648438 -70.5 36.941406 -70.570312 36.234375 -70.21875 C 35.523438 -69.863281 35.171875 -68.941406 35.171875 -67.453125 L 35.171875 -39.421875 L 44.859375 -39.421875 C 45.992188 -39.421875 46.738281 -39.066406 47.09375 -38.359375 C 47.457031 -37.648438 47.457031 -36.941406 47.09375 -36.234375 C 46.738281 -35.523438 45.992188 -35.171875 44.859375 -35.171875 L 35.171875 -35.171875 L 35.171875 -7.140625 C 35.171875 -5.859375 35.523438 -5.003906 36.234375 -4.578125 C 36.941406 -4.148438 37.648438 -4.148438 38.359375 -4.578125 C 39.066406 -5.003906 39.421875 -5.859375 39.421875 -7.140625 L 39.421875 -17.90625 C 39.421875 -21.164062 40.21875 -24.144531 41.8125 -26.84375 C 43.414062 -29.550781 45.582031 -31.703125 48.3125 -33.296875 C 51.050781 -34.898438 54.054688 -35.703125 57.328125 -35.703125 Z M 57.328125 -35.703125 "/></g></g></g><g fill="#000000" fill-opacity="1"><g transform="translate(288.231158, 79.013132)"><g><path d="M 50.078125 -35.171875 L 57.328125 -35.171875 C 60.953125 -35.171875 64.21875 -34.316406 67.125 -32.609375 C 70.039062 -30.898438 72.332031 -28.660156 74 -25.890625 C 75.675781 -23.117188 76.515625 -20.101562 76.515625 -16.84375 C 76.515625 -13.5 75.75 -10.421875 74.21875 -7.609375 C 72.695312 -4.804688 70.601562 -2.550781 67.9375 -0.84375 C 65.269531 0.851562 62.195312 1.703125 58.71875 1.703125 C 54.738281 1.703125 51.289062 0.726562 48.375 -1.21875 C 45.46875 -3.175781 43.25 -5.785156 41.71875 -9.046875 C 40.1875 -12.316406 39.421875 -15.910156 39.421875 -19.828125 L 39.421875 -67.5625 C 39.421875 -69.40625 38.710938 -70.328125 37.296875 -70.328125 C 36.660156 -70.328125 36.144531 -70.203125 35.75 -69.953125 C 35.363281 -69.703125 35.171875 -69.15625 35.171875 -68.3125 L 35.171875 -7.25 C 35.171875 -5.113281 34.796875 -3.53125 34.046875 -2.5 C 33.296875 -1.46875 32.390625 -0.789062 31.328125 -0.46875 C 30.265625 -0.15625 29.234375 0 28.234375 0 L 9.171875 0 C 7.460938 0 6.09375 -0.40625 5.0625 -1.21875 C 4.03125 -2.039062 3.28125 -3.019531 2.8125 -4.15625 C 2.351562 -5.289062 2.125 -6.359375 2.125 -7.359375 L 2.125 -67.03125 C 2.125 -72.070312 4.363281 -74.59375 8.84375 -74.59375 L 40.8125 -74.59375 C 44.644531 -74.59375 48.441406 -74.253906 52.203125 -73.578125 C 55.972656 -72.898438 59.4375 -71.78125 62.59375 -70.21875 C 65.757812 -68.65625 68.285156 -66.628906 70.171875 -64.140625 C 72.054688 -61.660156 73 -58.609375 73 -54.984375 C 73 -50.148438 71.753906 -46.347656 69.265625 -43.578125 C 66.773438 -40.804688 62.796875 -39.421875 57.328125 -39.421875 L 50.078125 -39.421875 C 49.160156 -39.421875 48.539062 -39.066406 48.21875 -38.359375 C 47.894531 -37.648438 47.894531 -36.941406 48.21875 -36.234375 C 48.539062 -35.523438 49.160156 -35.171875 50.078125 -35.171875 Z M 50.078125 -35.171875 "/></g></g></g><g fill="#000000" fill-opacity="1"><g transform="translate(365.272478, 79.013132)"><g><path d="M 40.5 -67.453125 C 40.5 -68.941406 40.140625 -69.863281 39.421875 -70.21875 C 38.710938 -70.570312 38.003906 -70.5 37.296875 -70 C 36.585938 -69.507812 36.234375 -68.660156 36.234375 -67.453125 L 36.234375 -56.6875 C 36.234375 -53.351562 35.429688 -50.332031 33.828125 -47.625 C 32.234375 -44.925781 30.101562 -42.796875 27.4375 -41.234375 C 24.769531 -39.671875 21.769531 -38.890625 18.4375 -38.890625 C 15.164062 -38.890625 12.179688 -39.671875 9.484375 -41.234375 C 6.785156 -42.796875 4.617188 -44.910156 2.984375 -47.578125 C 1.347656 -50.242188 0.53125 -53.210938 0.53125 -56.484375 C 0.53125 -59.816406 1.328125 -62.847656 2.921875 -65.578125 C 4.523438 -68.316406 6.675781 -70.503906 9.375 -72.140625 C 12.070312 -73.773438 15.054688 -74.59375 18.328125 -74.59375 L 95.6875 -74.59375 C 98.957031 -74.59375 101.941406 -73.773438 104.640625 -72.140625 C 107.335938 -70.503906 109.484375 -68.316406 111.078125 -65.578125 C 112.679688 -62.847656 113.484375 -59.816406 113.484375 -56.484375 C 113.484375 -53.210938 112.679688 -50.242188 111.078125 -47.578125 C 109.484375 -44.910156 107.335938 -42.796875 104.640625 -41.234375 C 101.941406 -39.671875 98.925781 -38.890625 95.59375 -38.890625 C 92.320312 -38.890625 89.335938 -39.671875 86.640625 -41.234375 C 83.941406 -42.796875 81.789062 -44.925781 80.1875 -47.625 C 78.59375 -50.332031 77.796875 -53.351562 77.796875 -56.6875 L 77.796875 -67.453125 C 77.796875 -68.804688 77.4375 -69.691406 76.71875 -70.109375 C 76.007812 -70.535156 75.300781 -70.535156 74.59375 -70.109375 C 73.882812 -69.691406 73.53125 -68.804688 73.53125 -67.453125 L 73.53125 -7.359375 C 73.53125 -2.453125 71.289062 0 66.8125 0 L 47.203125 0 C 44.785156 0 43.0625 -0.65625 42.03125 -1.96875 C 41.007812 -3.28125 40.5 -5.109375 40.5 -7.453125 Z M 40.5 -67.453125 "/></g></g></g><g clip-path="url(#5e98bca9b2)"><path fill="#000000" d="M 0 98.160156 L 71.261719 98.160156 L 71.261719 115.855469 L 0 115.855469 Z M 0 98.160156 " fill-opacity="1" fill-rule="nonzero"/></g><g clip-path="url(#8f3f8896d4)"><path fill="#fbe925" d="M 71.253906 98.160156 L 142.519531 98.160156 L 142.519531 115.855469 L 71.253906 115.855469 Z M 71.253906 98.160156 " fill-opacity="1" fill-rule="nonzero"/></g><g clip-path="url(#0f789cbbf1)"><path fill="#e3017e" d="M 142.507812 98.160156 L 213.773438 98.160156 L 213.773438 115.855469 L 142.507812 115.855469 Z M 142.507812 98.160156 " fill-opacity="1" fill-rule="nonzero"/></g><g clip-path="url(#a99b07ab55)"><path fill="#1299db" d="M 213.761719 98.160156 L 285.027344 98.160156 L 285.027344 115.855469 L 213.761719 115.855469 Z M 213.761719 98.160156 " fill-opacity="1" fill-rule="nonzero"/></g><g fill="#1299db" fill-opacity="1"><g transform="translate(290.219777, 112.845634)"><g><path d="M 19.34375 -9.296875 C 19.59375 -9.515625 19.859375 -9.582031 20.140625 -9.5 C 20.429688 -9.425781 20.578125 -9.238281 20.578125 -8.9375 C 20.578125 -7.726562 20.394531 -6.5625 20.03125 -5.4375 C 19.664062 -4.3125 19.109375 -3.300781 18.359375 -2.40625 C 17.609375 -1.507812 16.65625 -0.804688 15.5 -0.296875 C 14.351562 0.210938 12.988281 0.46875 11.40625 0.46875 C 9.863281 0.46875 8.414062 0.195312 7.0625 -0.34375 C 5.71875 -0.882812 4.535156 -1.648438 3.515625 -2.640625 C 2.492188 -3.628906 1.703125 -4.796875 1.140625 -6.140625 C 0.578125 -7.492188 0.296875 -8.960938 0.296875 -10.546875 C 0.296875 -12.015625 0.578125 -13.390625 1.140625 -14.671875 C 1.703125 -15.960938 2.492188 -17.109375 3.515625 -18.109375 C 4.535156 -19.109375 5.734375 -19.890625 7.109375 -20.453125 C 8.484375 -21.015625 9.992188 -21.296875 11.640625 -21.296875 C 13.003906 -21.296875 14.226562 -21.085938 15.3125 -20.671875 C 16.394531 -20.253906 17.3125 -19.710938 18.0625 -19.046875 C 18.8125 -18.390625 19.382812 -17.671875 19.78125 -16.890625 C 20.175781 -16.109375 20.375 -15.359375 20.375 -14.640625 C 20.375 -13.210938 20.0625 -12.070312 19.4375 -11.21875 C 18.8125 -10.375 18.023438 -9.765625 17.078125 -9.390625 C 16.128906 -9.015625 15.160156 -8.828125 14.171875 -8.828125 C 13.335938 -8.828125 12.539062 -9.023438 11.78125 -9.421875 C 11.019531 -9.816406 10.394531 -10.375 9.90625 -11.09375 C 9.414062 -11.8125 9.171875 -12.660156 9.171875 -13.640625 C 9.171875 -14.460938 9.367188 -15.210938 9.765625 -15.890625 C 10.160156 -16.566406 10.703125 -17.101562 11.390625 -17.5 C 12.078125 -17.894531 12.828125 -18.09375 13.640625 -18.09375 C 14.453125 -18.09375 15.164062 -17.90625 15.78125 -17.53125 C 16.40625 -17.164062 16.910156 -16.707031 17.296875 -16.15625 C 17.679688 -15.601562 17.914062 -15.0625 18 -14.53125 C 18.0625 -14.1875 18.195312 -13.992188 18.40625 -13.953125 C 18.613281 -13.921875 18.8125 -13.976562 19 -14.125 C 19.1875 -14.269531 19.25 -14.453125 19.1875 -14.671875 C 18.96875 -15.703125 18.566406 -16.554688 17.984375 -17.234375 C 17.398438 -17.921875 16.726562 -18.429688 15.96875 -18.765625 C 15.207031 -19.109375 14.429688 -19.28125 13.640625 -19.28125 C 12.628906 -19.28125 11.695312 -19.023438 10.84375 -18.515625 C 9.988281 -18.015625 9.296875 -17.335938 8.765625 -16.484375 C 8.242188 -15.628906 7.984375 -14.679688 7.984375 -13.640625 C 7.984375 -12.628906 8.242188 -11.660156 8.765625 -10.734375 C 9.296875 -9.816406 10.023438 -9.070312 10.953125 -8.5 C 11.890625 -7.925781 12.960938 -7.640625 14.171875 -7.640625 C 14.878906 -7.640625 15.703125 -7.738281 16.640625 -7.9375 C 17.585938 -8.132812 18.488281 -8.585938 19.34375 -9.296875 Z M 19.34375 -9.296875 "/></g></g></g><g fill="#1299db" fill-opacity="1"><g transform="translate(311.569398, 112.845634)"><g><path d="M 11.28125 0.5 C 8.988281 0.5 7.019531 0.128906 5.375 -0.609375 C 3.726562 -1.347656 2.46875 -2.519531 1.59375 -4.125 C 0.726562 -5.726562 0.296875 -7.828125 0.296875 -10.421875 C 0.296875 -12.992188 0.726562 -15.078125 1.59375 -16.671875 C 2.46875 -18.265625 3.726562 -19.425781 5.375 -20.15625 C 7.019531 -20.894531 8.988281 -21.265625 11.28125 -21.265625 C 13.582031 -21.265625 15.550781 -20.894531 17.1875 -20.15625 C 18.832031 -19.425781 20.09375 -18.265625 20.96875 -16.671875 C 21.84375 -15.078125 22.28125 -12.992188 22.28125 -10.421875 C 22.28125 -7.828125 21.84375 -5.726562 20.96875 -4.125 C 20.09375 -2.519531 18.832031 -1.347656 17.1875 -0.609375 C 15.550781 0.128906 13.582031 0.5 11.28125 0.5 Z M 10.6875 -19.453125 L 10.6875 -1.421875 C 10.6875 -1.148438 10.785156 -0.960938 10.984375 -0.859375 C 11.179688 -0.765625 11.378906 -0.765625 11.578125 -0.859375 C 11.773438 -0.960938 11.875 -1.148438 11.875 -1.421875 L 11.875 -19.453125 C 11.875 -19.734375 11.773438 -19.914062 11.578125 -20 C 11.378906 -20.09375 11.179688 -20.09375 10.984375 -20 C 10.785156 -19.914062 10.6875 -19.734375 10.6875 -19.453125 Z M 10.6875 -19.453125 "/></g></g></g><g fill="#1299db" fill-opacity="1"><g transform="translate(334.106766, 112.845634)"><g><path d="M 2.4375 0 C 1.800781 0 1.332031 -0.179688 1.03125 -0.546875 C 0.738281 -0.910156 0.59375 -1.410156 0.59375 -2.046875 L 0.59375 -19.046875 C 0.59375 -19.578125 0.671875 -20 0.828125 -20.3125 C 0.984375 -20.632812 1.3125 -20.796875 1.8125 -20.796875 L 8.640625 -20.796875 C 9.410156 -20.796875 9.796875 -20.210938 9.796875 -19.046875 L 9.796875 -1.984375 C 9.796875 -1.628906 9.894531 -1.390625 10.09375 -1.265625 C 10.289062 -1.148438 10.488281 -1.148438 10.6875 -1.265625 C 10.882812 -1.390625 10.984375 -1.628906 10.984375 -1.984375 L 10.984375 -4.984375 C 10.984375 -5.921875 11.207031 -6.757812 11.65625 -7.5 C 12.101562 -8.238281 12.707031 -8.832031 13.46875 -9.28125 C 14.226562 -9.726562 15.078125 -9.953125 16.015625 -9.953125 C 16.921875 -9.953125 17.742188 -9.726562 18.484375 -9.28125 C 19.234375 -8.832031 19.828125 -8.238281 20.265625 -7.5 C 20.710938 -6.757812 20.9375 -5.929688 20.9375 -5.015625 C 20.9375 -4.085938 20.710938 -3.242188 20.265625 -2.484375 C 19.828125 -1.722656 19.234375 -1.117188 18.484375 -0.671875 C 17.742188 -0.222656 16.921875 0 16.015625 0 Z M 2.4375 0 "/></g></g></g><g fill="#1299db" fill-opacity="1"><g transform="translate(355.189146, 112.845634)"><g><path d="M 11.28125 0.5 C 8.988281 0.5 7.019531 0.128906 5.375 -0.609375 C 3.726562 -1.347656 2.46875 -2.519531 1.59375 -4.125 C 0.726562 -5.726562 0.296875 -7.828125 0.296875 -10.421875 C 0.296875 -12.992188 0.726562 -15.078125 1.59375 -16.671875 C 2.46875 -18.265625 3.726562 -19.425781 5.375 -20.15625 C 7.019531 -20.894531 8.988281 -21.265625 11.28125 -21.265625 C 13.582031 -21.265625 15.550781 -20.894531 17.1875 -20.15625 C 18.832031 -19.425781 20.09375 -18.265625 20.96875 -16.671875 C 21.84375 -15.078125 22.28125 -12.992188 22.28125 -10.421875 C 22.28125 -7.828125 21.84375 -5.726562 20.96875 -4.125 C 20.09375 -2.519531 18.832031 -1.347656 17.1875 -0.609375 C 15.550781 0.128906 13.582031 0.5 11.28125 0.5 Z M 10.6875 -19.453125 L 10.6875 -1.421875 C 10.6875 -1.148438 10.785156 -0.960938 10.984375 -0.859375 C 11.179688 -0.765625 11.378906 -0.765625 11.578125 -0.859375 C 11.773438 -0.960938 11.875 -1.148438 11.875 -1.421875 L 11.875 -19.453125 C 11.875 -19.734375 11.773438 -19.914062 11.578125 -20 C 11.378906 -20.09375 11.179688 -20.09375 10.984375 -20 C 10.785156 -19.914062 10.6875 -19.734375 10.6875 -19.453125 Z M 10.6875 -19.453125 "/></g></g></g><g fill="#1299db" fill-opacity="1"><g transform="translate(377.726513, 112.845634)"><g><path d="M 13.953125 -9.796875 L 15.984375 -9.796875 C 16.992188 -9.796875 17.90625 -9.554688 18.71875 -9.078125 C 19.53125 -8.609375 20.164062 -7.988281 20.625 -7.21875 C 21.09375 -6.445312 21.328125 -5.601562 21.328125 -4.6875 C 21.328125 -3.757812 21.113281 -2.90625 20.6875 -2.125 C 20.257812 -1.34375 19.675781 -0.710938 18.9375 -0.234375 C 18.195312 0.234375 17.335938 0.46875 16.359375 0.46875 C 15.253906 0.46875 14.296875 0.195312 13.484375 -0.34375 C 12.671875 -0.882812 12.050781 -1.609375 11.625 -2.515625 C 11.195312 -3.429688 10.984375 -4.4375 10.984375 -5.53125 L 10.984375 -18.828125 C 10.984375 -19.347656 10.785156 -19.609375 10.390625 -19.609375 C 10.210938 -19.609375 10.066406 -19.570312 9.953125 -19.5 C 9.847656 -19.425781 9.796875 -19.273438 9.796875 -19.046875 L 9.796875 -2.015625 C 9.796875 -1.421875 9.691406 -0.976562 9.484375 -0.6875 C 9.273438 -0.40625 9.019531 -0.21875 8.71875 -0.125 C 8.425781 -0.0390625 8.144531 0 7.875 0 L 2.546875 0 C 2.078125 0 1.695312 -0.113281 1.40625 -0.34375 C 1.125 -0.570312 0.914062 -0.84375 0.78125 -1.15625 C 0.65625 -1.476562 0.59375 -1.773438 0.59375 -2.046875 L 0.59375 -18.6875 C 0.59375 -20.09375 1.21875 -20.796875 2.46875 -20.796875 L 11.375 -20.796875 C 12.445312 -20.796875 13.503906 -20.703125 14.546875 -20.515625 C 15.597656 -20.328125 16.5625 -20.015625 17.4375 -19.578125 C 18.320312 -19.140625 19.023438 -18.570312 19.546875 -17.875 C 20.078125 -17.1875 20.34375 -16.335938 20.34375 -15.328125 C 20.34375 -13.984375 19.992188 -12.921875 19.296875 -12.140625 C 18.609375 -11.367188 17.503906 -10.984375 15.984375 -10.984375 L 13.953125 -10.984375 C 13.703125 -10.984375 13.53125 -10.882812 13.4375 -10.6875 C 13.351562 -10.488281 13.351562 -10.289062 13.4375 -10.09375 C 13.53125 -9.894531 13.703125 -9.796875 13.953125 -9.796875 Z M 13.953125 -9.796875 "/></g></g></g><g fill="#1299db" fill-opacity="1"><g transform="translate(399.194917, 112.845634)"><g/></g></g><g fill="#1299db" fill-opacity="1"><g transform="translate(417.011024, 112.845634)"><g><path d="M 9.5 -1.421875 C 9.5 -1.128906 9.597656 -0.929688 9.796875 -0.828125 C 9.992188 -0.734375 10.191406 -0.734375 10.390625 -0.828125 C 10.585938 -0.929688 10.6875 -1.128906 10.6875 -1.421875 L 10.6875 -18.5625 C 10.6875 -19.21875 10.832031 -19.753906 11.125 -20.171875 C 11.425781 -20.585938 11.9375 -20.796875 12.65625 -20.796875 L 17.90625 -20.796875 C 18.664062 -20.796875 19.1875 -20.601562 19.46875 -20.21875 C 19.757812 -19.84375 19.90625 -19.320312 19.90625 -18.65625 L 19.90625 -9.59375 C 19.90625 -7.414062 19.472656 -5.578125 18.609375 -4.078125 C 17.742188 -2.585938 16.570312 -1.457031 15.09375 -0.6875 C 13.625 0.0703125 11.957031 0.453125 10.09375 0.453125 C 8.332031 0.453125 6.707031 0.0703125 5.21875 -0.6875 C 3.738281 -1.457031 2.546875 -2.585938 1.640625 -4.078125 C 0.742188 -5.578125 0.296875 -7.414062 0.296875 -9.59375 L 0.296875 -18.6875 C 0.296875 -19.332031 0.441406 -19.84375 0.734375 -20.21875 C 1.035156 -20.601562 1.550781 -20.796875 2.28125 -20.796875 L 7.515625 -20.796875 C 8.222656 -20.796875 8.726562 -20.597656 9.03125 -20.203125 C 9.34375 -19.804688 9.5 -19.347656 9.5 -18.828125 Z M 9.5 -1.421875 "/></g></g></g><g fill="#1299db" fill-opacity="1"><g transform="translate(438.479428, 112.845634)"><g><path d="M 1.84375 -15.75 C 1.3125 -16.59375 1.097656 -17.394531 1.203125 -18.15625 C 1.304688 -18.925781 1.6875 -19.554688 2.34375 -20.046875 C 3 -20.546875 3.890625 -20.796875 5.015625 -20.796875 L 12.296875 -20.796875 C 13.304688 -20.796875 14.207031 -20.570312 15 -20.125 C 15.789062 -19.675781 16.410156 -19.082031 16.859375 -18.34375 C 17.316406 -17.601562 17.546875 -16.773438 17.546875 -15.859375 C 17.546875 -14.953125 17.347656 -14.117188 16.953125 -13.359375 C 16.554688 -12.609375 16 -12.007812 15.28125 -11.5625 C 14.5625 -11.125 13.6875 -10.90625 12.65625 -10.90625 C 11.84375 -10.90625 10.914062 -11.1875 9.875 -11.75 C 8.832031 -12.3125 7.78125 -13.066406 6.71875 -14.015625 C 5.664062 -14.972656 4.703125 -16.003906 3.828125 -17.109375 C 3.710938 -17.285156 3.550781 -17.363281 3.34375 -17.34375 C 3.132812 -17.320312 2.96875 -17.238281 2.84375 -17.09375 C 2.726562 -16.945312 2.738281 -16.734375 2.875 -16.453125 C 3.175781 -15.898438 3.640625 -15.304688 4.265625 -14.671875 C 4.890625 -14.035156 5.609375 -13.40625 6.421875 -12.78125 C 7.242188 -12.15625 8.09375 -11.578125 8.96875 -11.046875 C 10.550781 -10.097656 11.941406 -9.113281 13.140625 -8.09375 C 14.335938 -7.070312 15.242188 -6.066406 15.859375 -5.078125 C 16.390625 -4.242188 16.613281 -3.4375 16.53125 -2.65625 C 16.457031 -1.875 16.09375 -1.234375 15.4375 -0.734375 C 14.789062 -0.242188 13.863281 0 12.65625 0 L 5.40625 0 C 4.394531 0 3.492188 -0.222656 2.703125 -0.671875 C 1.910156 -1.117188 1.285156 -1.71875 0.828125 -2.46875 C 0.378906 -3.21875 0.15625 -4.046875 0.15625 -4.953125 C 0.15625 -5.867188 0.351562 -6.695312 0.75 -7.4375 C 1.144531 -8.175781 1.703125 -8.769531 2.421875 -9.21875 C 3.140625 -9.664062 4.015625 -9.890625 5.046875 -9.890625 C 5.878906 -9.890625 6.8125 -9.609375 7.84375 -9.046875 C 8.875 -8.484375 9.914062 -7.726562 10.96875 -6.78125 C 12.03125 -5.84375 13 -4.820312 13.875 -3.71875 C 14.007812 -3.550781 14.179688 -3.472656 14.390625 -3.484375 C 14.597656 -3.492188 14.753906 -3.578125 14.859375 -3.734375 C 14.972656 -3.898438 14.960938 -4.109375 14.828125 -4.359375 C 14.546875 -4.898438 14.085938 -5.488281 13.453125 -6.125 C 12.816406 -6.769531 12.0625 -7.425781 11.1875 -8.09375 C 10.320312 -8.757812 9.394531 -9.390625 8.40625 -9.984375 C 7.019531 -10.828125 5.738281 -11.75 4.5625 -12.75 C 3.382812 -13.75 2.476562 -14.75 1.84375 -15.75 Z M 1.84375 -15.75 "/></g></g></g><g fill="#1299db" fill-opacity="1"><g transform="translate(456.176751, 112.845634)"><g><path d="M 23.53125 -1.578125 C 23.664062 -1.203125 23.679688 -0.84375 23.578125 -0.5 C 23.484375 -0.164062 23.195312 0 22.71875 0 L 14.5 0 C 14 0 13.632812 -0.0859375 13.40625 -0.265625 C 13.175781 -0.441406 13.015625 -0.703125 12.921875 -1.046875 L 11.171875 -8.109375 L 9.953125 -8.109375 L 10.09375 -7.453125 C 10.457031 -6.003906 10.546875 -4.769531 10.359375 -3.75 C 10.179688 -2.738281 9.832031 -1.925781 9.3125 -1.3125 C 8.789062 -0.695312 8.171875 -0.25 7.453125 0.03125 C 6.742188 0.320312 6.03125 0.46875 5.3125 0.46875 C 4.40625 0.46875 3.5625 0.257812 2.78125 -0.15625 C 2 -0.582031 1.367188 -1.171875 0.890625 -1.921875 C 0.410156 -2.679688 0.164062 -3.566406 0.15625 -4.578125 C 0.15625 -5.585938 0.457031 -6.6875 1.0625 -7.875 L 7.15625 -19.515625 C 7.414062 -20.003906 7.703125 -20.335938 8.015625 -20.515625 C 8.335938 -20.703125 8.6875 -20.796875 9.0625 -20.796875 L 15.390625 -20.796875 C 15.878906 -20.796875 16.257812 -20.691406 16.53125 -20.484375 C 16.800781 -20.273438 16.992188 -20 17.109375 -19.65625 Z M 9.65625 -9.265625 L 10.90625 -9.265625 L 8.90625 -17.25 C 8.832031 -17.632812 8.6875 -17.851562 8.46875 -17.90625 C 8.25 -17.96875 8.054688 -17.910156 7.890625 -17.734375 C 7.734375 -17.554688 7.695312 -17.296875 7.78125 -16.953125 Z M 9.65625 -9.265625 "/></g></g></g></svg>